<?xml version="1.0" encoding="utf-8"?>
<!-- Generator: Adobe Illustrator 19.2.1, SVG Export Plug-In . SVG Version: 6.00 Build 0)  -->
<svg version="1.1" id="Layer_1" xmlns="http://www.w3.org/2000/svg" xmlns:xlink="http://www.w3.org/1999/xlink" x="0px" y="0px"
	 viewBox="0 0 19 19" style="enable-background:new 0 0 19 19;" xml:space="preserve">
<title>marker-15.svg</title>
<path d="M19.1,4.1c-0.3,0-0.5,0.1-0.7,0.3l-9.9,9.9L5.2,11c-0.2-0.2-0.4-0.3-0.7-0.3c-0.5,0-0.9,0.4-0.9,0.9c0,0.3,0.1,0.5,0.3,0.7
	l4,4c0.2,0.2,0.4,0.3,0.7,0.3s0.5-0.1,0.7-0.3L19.7,5.7C19.9,5.5,20,5.3,20,5.1C20,4.5,19.6,4.1,19.1,4.1z"/>
<polygon points="12.6,9.2 12.6,7.4 1.6,7.4 1.6,18.4 12.6,18.4 12.6,14.1 11.5,15.2 11.5,17.3 2.7,17.3 2.7,8.5 11.5,8.5 11.5,10.3 
	"/>
</svg>
